<?xml version="1.0" encoding="utf-8"?>
<!-- Generator: Adobe Illustrator 17.0.0, SVG Export Plug-In . SVG Version: 6.00 Build 0)  -->
<!DOCTYPE svg PUBLIC "-//W3C//DTD SVG 1.1//EN" "http://www.w3.org/Graphics/SVG/1.1/DTD/svg11.dtd">
<svg version="1.1" xmlns="http://www.w3.org/2000/svg" xmlns:xlink="http://www.w3.org/1999/xlink" x="0px" y="0px" width="36.51px"
	 height="23.878px" viewBox="239.682 756.061 36.51 23.878" enable-background="new 239.682 756.061 36.51 23.878"
	 xml:space="preserve">
<g id="Layer_3_copy_3">
	<rect x="513.25" y="512" display="none" fill="#FFFFFF" width="512" height="512"/>
	<rect x="1.25" y="512" display="none" fill="#3F4142" width="512" height="512"/>
	<g id="logo_2_copy_3">
		<g display="none">
			
				<image display="inline" overflow="visible" opacity="0.3" width="449" height="449" xlink:href="7587C39F.png"  transform="matrix(1 0 0 1 545.5 543.5)">
			</image>
			<g display="inline">
				<circle fill="#ECF0F1" cx="770" cy="768" r="206.5"/>
			</g>
		</g>
		<g>
			
				<image overflow="visible" opacity="0.1" width="155" height="93" xlink:href="7587C39D.png"  transform="matrix(1 0 0 1 788.5 709.5)">
			</image>
			<g>
				<path fill="#8F9D9E" d="M933.886,716.3l-138.727,15.76l64.004,63.898l76.347-76.287
					C937.718,717.465,936.987,715.948,933.886,716.3z"/>
			</g>
		</g>
		<g>
			
				<image overflow="visible" opacity="0.1" width="67" height="132" xlink:href="7587C3A3.png"  transform="matrix(1 0 0 1 628.5 663.5)">
			</image>
			<g>
				<path fill="#97A4A5" d="M685.596,719.979l-50.382-50.382V789.09l50.382-50.383C690.746,733.557,690.746,725.129,685.596,719.979
					z"/>
			</g>
		</g>
		<g>
			
				<image overflow="visible" opacity="0.1" width="67" height="132" xlink:href="7587C3A5.png"  transform="matrix(1 0 0 1 637.5 740.5)">
			</image>
			<g>
				<path fill="#97A4A5" d="M647.534,815.702l50.382,50.382V746.591l-50.382,50.383
					C642.384,802.124,642.384,810.552,647.534,815.702z"/>
			</g>
		</g>
		<g>
			
				<image overflow="visible" opacity="0.1" width="122" height="143" xlink:href="7587C3A7.png"  transform="matrix(1 0 0 1 727.5 730.5)">
			</image>
			<g>
				<path fill="#8F9D9E" d="M838.3,795.493l-58.396-58.397l-46.389,87.377l37.662,37.664c2.89,2.889,6.76,4.48,10.9,4.48h0.002
					c4.119,0,7.972-1.579,10.86-4.447l45.328-45.046c2.886-2.869,4.479-6.707,4.487-10.809
					C842.754,802.214,841.177,798.37,838.3,795.493z"/>
			</g>
		</g>
		<g>
			
				<image overflow="visible" opacity="0.1" width="81" height="168" xlink:href="7587C3A4.png"  transform="matrix(1 0 0 1 705.5 662.5)">
			</image>
			<g>
				<path fill="#97A4A5" d="M712.192,669.383v114.242c0,10.398,6.447,25.971,13.801,33.325l7.522,7.523l46.389-87.377
					L712.192,669.383z"/>
			</g>
		</g>
	</g>
	<g id="logo_1_copy_3" display="none">
		<g>
			
				<image display="inline" overflow="visible" opacity="0.4" width="449" height="449" xlink:href="7587C3AC.png"  transform="matrix(1 0 0 1 31.5 543.5)">
			</image>
			<g display="inline">
				<circle fill="#8F9D9E" cx="256" cy="768" r="206.5"/>
			</g>
		</g>
		<g display="inline">
			
				<image overflow="visible" opacity="0.1" width="155" height="93" xlink:href="7587C3AD.png"  transform="matrix(1 0 0 1 274.5 709.5)">
			</image>
			<g>
				<path fill="#EBEDED" d="M419.886,716.3l-138.727,15.76l64.004,63.898l76.347-76.287
					C423.718,717.465,422.987,715.948,419.886,716.3z"/>
			</g>
		</g>
		<g display="inline">
			
				<image overflow="visible" opacity="0.1" width="67" height="132" xlink:href="7587C3AF.png"  transform="matrix(1 0 0 1 114.5 663.5)">
			</image>
			<g>
				<path fill="#F9F9F9" d="M171.596,719.979l-50.382-50.382V789.09l50.382-50.383C176.746,733.557,176.746,725.129,171.596,719.979
					z"/>
			</g>
		</g>
		<g display="inline">
			
				<image overflow="visible" opacity="0.1" width="67" height="132" xlink:href="FC9F460C.png"  transform="matrix(1 0 0 1 123.5 740.5)">
			</image>
			<g>
				<path fill="#F9F9F9" d="M133.534,815.702l50.382,50.382V746.591l-50.382,50.383
					C128.384,802.124,128.384,810.552,133.534,815.702z"/>
			</g>
		</g>
		<g display="inline">
			
				<image overflow="visible" opacity="0.1" width="122" height="143" xlink:href="FC9F460B.png"  transform="matrix(1 0 0 1 213.5 730.5)">
			</image>
			<g>
				<path fill="#EBEDED" d="M324.3,795.493l-58.396-58.397l-46.389,87.377l37.662,37.664c2.89,2.889,6.76,4.48,10.9,4.48h0.002
					c4.119,0,7.972-1.579,10.86-4.447l45.328-45.046c2.886-2.869,4.479-6.707,4.487-10.809
					C328.754,802.214,327.177,798.37,324.3,795.493z"/>
			</g>
		</g>
		<g display="inline">
			
				<image overflow="visible" opacity="0.1" width="81" height="168" xlink:href="FC9F4604.png"  transform="matrix(1 0 0 1 191.5 662.5)">
			</image>
			<g>
				<path fill="#F9F9F9" d="M198.192,669.383v114.242c0,10.398,6.447,25.971,13.801,33.325l7.522,7.523l46.389-87.377
					L198.192,669.383z"/>
			</g>
		</g>
	</g>
	<g id="logo_1_copy_6">
		<g display="none">
			
				<image display="inline" overflow="visible" opacity="0.4" width="87" height="87" xlink:href="FC9F4607.png"  transform="matrix(1 0 0 1 212.5 724.5)">
			</image>
			<g display="inline">
				<circle fill="#8F9D9E" cx="256" cy="768" r="25"/>
			</g>
		</g>
		<g>
			
				<image overflow="visible" opacity="0.1" width="30" height="22" xlink:href="FC9F4605.png"  transform="matrix(1 0 0 1 252.5 755.5)">
			</image>
			<g>
				<path fill="#EBEDED" d="M275.841,761.741l-16.795,1.908l7.749,7.736l9.243-9.236
					C276.305,761.882,276.216,761.698,275.841,761.741z"/>
			</g>
		</g>
		<g>
			
				<image overflow="visible" opacity="0.1" width="19" height="28" xlink:href="FC9F461B.png"  transform="matrix(1 0 0 1 233.5 749.5)">
			</image>
			<g>
				<path fill="#F9F9F9" d="M245.782,762.186l-6.1-6.099v14.466l6.1-6.1C246.405,763.83,246.405,762.81,245.782,762.186z"/>
			</g>
		</g>
		<g>
			
				<image overflow="visible" opacity="0.1" width="19" height="28" xlink:href="FC9F461C.png"  transform="matrix(1 0 0 1 234.5 758.5)">
			</image>
			<g>
				<path fill="#F9F9F9" d="M241.174,773.775l6.1,6.099v-14.466l-6.1,6.1C240.55,772.131,240.55,773.152,241.174,773.775z"/>
			</g>
		</g>
		<g>
			
				<image overflow="visible" opacity="0.1" width="26" height="29" xlink:href="FC9F461F.png"  transform="matrix(1 0 0 1 245.5 757.5)">
			</image>
			<g>
				<path fill="#EBEDED" d="M264.269,771.328l-7.07-7.07l-5.616,10.578l4.56,4.56c0.35,0.35,0.818,0.542,1.32,0.542h0
					c0.499,0,0.965-0.191,1.315-0.538l5.488-5.453c0.349-0.347,0.542-0.812,0.543-1.309
					C264.808,772.142,264.617,771.677,264.269,771.328z"/>
			</g>
		</g>
		<g>
			
				<image overflow="visible" opacity="0.1" width="21" height="32" xlink:href="FC9F461D.png"  transform="matrix(1 0 0 1 242.5 749.5)">
			</image>
			<g>
				<path fill="#F9F9F9" d="M249.001,756.061v13.831c0,1.259,0.781,3.144,1.671,4.034l0.911,0.911l5.616-10.578L249.001,756.061z"/>
			</g>
		</g>
	</g>
</g>
<g id="Layer_3_copy_4">
	<rect x="1.25" y="0" fill="#FFFFFF" width="1024" height="512"/>
	<g id="logo_2_copy_4">
		<g>
			
				<image overflow="visible" opacity="0.3" width="449" height="449" xlink:href="FC9F461A.png"  transform="matrix(1 0 0 1 545.5 31.5)">
			</image>
			<g>
				<circle fill="#ECF0F1" cx="770" cy="256" r="206.5"/>
			</g>
		</g>
		<g>
			
				<image overflow="visible" opacity="0.1" width="155" height="93" xlink:href="FC9F463F.png"  transform="matrix(1 0 0 1 788.5 197.5)">
			</image>
			<g>
				<path fill="#8F9D9E" d="M933.886,204.3l-138.727,15.76l64.004,63.898l76.347-76.287
					C937.718,205.465,936.987,203.948,933.886,204.3z"/>
			</g>
		</g>
		<g>
			
				<image overflow="visible" opacity="0.1" width="67" height="132" xlink:href="FC9F4639.png"  transform="matrix(1 0 0 1 628.5 151.5)">
			</image>
			<g>
				<path fill="#97A4A5" d="M685.596,207.979l-50.382-50.382V277.09l50.382-50.383C690.746,221.557,690.746,213.129,685.596,207.979
					z"/>
			</g>
		</g>
		<g>
			
				<image overflow="visible" opacity="0.1" width="67" height="132" xlink:href="FC9F463B.png"  transform="matrix(1 0 0 1 637.5 228.5)">
			</image>
			<g>
				<path fill="#97A4A5" d="M647.534,303.702l50.382,50.382V234.591l-50.382,50.383
					C642.384,290.124,642.384,298.552,647.534,303.702z"/>
			</g>
		</g>
		<g>
			
				<image overflow="visible" opacity="0.1" width="122" height="143" xlink:href="FC9F4636.png"  transform="matrix(1 0 0 1 727.5 218.5)">
			</image>
			<g>
				<path fill="#8F9D9E" d="M838.3,283.493l-58.396-58.397l-46.389,87.377l37.662,37.664c2.89,2.889,6.76,4.48,10.9,4.48h0.002
					c4.119,0,7.972-1.579,10.86-4.447l45.328-45.046c2.886-2.869,4.479-6.707,4.487-10.809
					C842.754,290.214,841.177,286.37,838.3,283.493z"/>
			</g>
		</g>
		<g>
			
				<image overflow="visible" opacity="0.1" width="81" height="168" xlink:href="FC9F4637.png"  transform="matrix(1 0 0 1 705.5 150.5)">
			</image>
			<g>
				<path fill="#97A4A5" d="M712.192,157.383v114.242c0,10.398,6.447,25.971,13.801,33.325l7.522,7.523l46.389-87.377
					L712.192,157.383z"/>
			</g>
		</g>
	</g>
	<g id="logo_1_copy_4">
		<g>
			
				<image overflow="visible" opacity="0.4" width="449" height="449" xlink:href="FC9F4629.png"  transform="matrix(1 0 0 1 31.5 31.5)">
			</image>
			<g>
				<circle fill="#8F9D9E" cx="256" cy="256" r="206.5"/>
			</g>
		</g>
		<g>
			
				<image overflow="visible" opacity="0.1" width="155" height="93" xlink:href="FC9F462B.png"  transform="matrix(1 0 0 1 274.5 197.5)">
			</image>
			<g>
				<path fill="#EBEDED" d="M419.886,204.3l-138.727,15.76l64.004,63.898l76.347-76.287
					C423.718,205.465,422.987,203.948,419.886,204.3z"/>
			</g>
		</g>
		<g>
			
				<image overflow="visible" opacity="0.1" width="67" height="132" xlink:href="FC9F462E.png"  transform="matrix(1 0 0 1 114.5 151.5)">
			</image>
			<g>
				<path fill="#F9F9F9" d="M171.596,207.979l-50.382-50.382V277.09l50.382-50.383C176.746,221.557,176.746,213.129,171.596,207.979
					z"/>
			</g>
		</g>
		<g>
			
				<image overflow="visible" opacity="0.1" width="67" height="132" xlink:href="FC9F462F.png"  transform="matrix(1 0 0 1 123.5 228.5)">
			</image>
			<g>
				<path fill="#F9F9F9" d="M133.534,303.702l50.382,50.382V234.591l-50.382,50.383
					C128.384,290.124,128.384,298.552,133.534,303.702z"/>
			</g>
		</g>
		<g>
			
				<image overflow="visible" opacity="0.1" width="122" height="143" xlink:href="FC9F462A.png"  transform="matrix(1 0 0 1 213.5 218.5)">
			</image>
			<g>
				<path fill="#EBEDED" d="M324.3,283.493l-58.396-58.397l-46.389,87.377l37.662,37.664c2.89,2.889,6.76,4.48,10.9,4.48h0.002
					c4.119,0,7.972-1.579,10.86-4.447l45.328-45.046c2.886-2.869,4.479-6.707,4.487-10.809
					C328.754,290.214,327.177,286.37,324.3,283.493z"/>
			</g>
		</g>
		<g>
			
				<image overflow="visible" opacity="0.1" width="81" height="168" xlink:href="FC9F464E.png"  transform="matrix(1 0 0 1 191.5 150.5)">
			</image>
			<g>
				<path fill="#F9F9F9" d="M198.192,157.383v114.242c0,10.398,6.447,25.971,13.801,33.325l7.522,7.523l46.389-87.377
					L198.192,157.383z"/>
			</g>
		</g>
	</g>
</g>
<g id="Layer_3_copy_5">
	<rect x="1.25" y="1024" fill="#3F4142" width="1024" height="512"/>
	<g id="logo_2_copy_5">
		<g>
			
				<image overflow="visible" opacity="0.3" width="449" height="449" xlink:href="FC9F4671.png"  transform="matrix(1 0 0 1 545.5 1055.5)">
			</image>
			<g>
				<circle fill="#ECF0F1" cx="770" cy="1280" r="206.5"/>
			</g>
		</g>
		<g>
			
				<image overflow="visible" opacity="0.1" width="155" height="93" xlink:href="FC9F4672.png"  transform="matrix(1 0 0 1 788.5 1221.5)">
			</image>
			<g>
				<path fill="#8F9D9E" d="M933.886,1228.3l-138.727,15.76l64.004,63.898l76.347-76.287
					C937.718,1229.465,936.987,1227.948,933.886,1228.3z"/>
			</g>
		</g>
		<g>
			
				<image overflow="visible" opacity="0.1" width="67" height="132" xlink:href="FC9F4670.png"  transform="matrix(1 0 0 1 628.5 1175.5)">
			</image>
			<g>
				<path fill="#97A4A5" d="M685.596,1231.979l-50.382-50.382v119.493l50.382-50.383
					C690.746,1245.557,690.746,1237.129,685.596,1231.979z"/>
			</g>
		</g>
		<g>
			
				<image overflow="visible" opacity="0.1" width="67" height="132" xlink:href="FC9F4676.png"  transform="matrix(1 0 0 1 637.5 1252.5)">
			</image>
			<g>
				<path fill="#97A4A5" d="M647.534,1327.702l50.382,50.382v-119.493l-50.382,50.383
					C642.384,1314.124,642.384,1322.552,647.534,1327.702z"/>
			</g>
		</g>
		<g>
			
				<image overflow="visible" opacity="0.1" width="122" height="143" xlink:href="FC9F4673.png"  transform="matrix(1 0 0 1 727.5 1242.5)">
			</image>
			<g>
				<path fill="#8F9D9E" d="M838.3,1307.493l-58.396-58.397l-46.389,87.377l37.662,37.664c2.89,2.889,6.76,4.48,10.9,4.48h0.002
					c4.119,0,7.972-1.579,10.86-4.447l45.328-45.046c2.886-2.869,4.479-6.707,4.487-10.809
					C842.754,1314.214,841.177,1310.37,838.3,1307.493z"/>
			</g>
		</g>
		<g>
			
				<image overflow="visible" opacity="0.1" width="81" height="168" xlink:href="FC9F467E.png"  transform="matrix(1 0 0 1 705.5 1174.5)">
			</image>
			<g>
				<path fill="#97A4A5" d="M712.192,1181.383v114.242c0,10.398,6.447,25.972,13.801,33.325l7.522,7.523l46.389-87.377
					L712.192,1181.383z"/>
			</g>
		</g>
	</g>
	<g id="logo_1_copy_5">
		<g>
			
				<image overflow="visible" opacity="0.4" width="449" height="449" xlink:href="FC9F467F.png"  transform="matrix(1 0 0 1 31.5 1055.5)">
			</image>
			<g>
				<circle fill="#8F9D9E" cx="256" cy="1280" r="206.5"/>
			</g>
		</g>
		<g>
			
				<image overflow="visible" opacity="0.1" width="155" height="93" xlink:href="FC9F4674.png"  transform="matrix(1 0 0 1 274.5 1221.5)">
			</image>
			<g>
				<path fill="#EBEDED" d="M419.886,1228.3l-138.727,15.76l64.004,63.898l76.347-76.287
					C423.718,1229.465,422.987,1227.948,419.886,1228.3z"/>
			</g>
		</g>
		<g>
			
				<image overflow="visible" opacity="0.1" width="67" height="132" xlink:href="FC9F4675.png"  transform="matrix(1 0 0 1 114.5 1175.5)">
			</image>
			<g>
				<path fill="#F9F9F9" d="M171.596,1231.979l-50.382-50.382v119.493l50.382-50.383
					C176.746,1245.557,176.746,1237.129,171.596,1231.979z"/>
			</g>
		</g>
		<g>
			
				<image overflow="visible" opacity="0.1" width="67" height="132" xlink:href="FC9F465D.png"  transform="matrix(1 0 0 1 123.5 1252.5)">
			</image>
			<g>
				<path fill="#F9F9F9" d="M133.534,1327.702l50.382,50.382v-119.493l-50.382,50.383
					C128.384,1314.124,128.384,1322.552,133.534,1327.702z"/>
			</g>
		</g>
		<g>
			
				<image overflow="visible" opacity="0.1" width="122" height="143" xlink:href="FC9F465F.png"  transform="matrix(1 0 0 1 213.5 1242.5)">
			</image>
			<g>
				<path fill="#EBEDED" d="M324.3,1307.493l-58.396-58.397l-46.389,87.377l37.662,37.664c2.89,2.889,6.76,4.48,10.9,4.48h0.002
					c4.119,0,7.972-1.579,10.86-4.447l45.328-45.046c2.886-2.869,4.479-6.707,4.487-10.809
					C328.754,1314.214,327.177,1310.37,324.3,1307.493z"/>
			</g>
		</g>
		<g>
			
				<image overflow="visible" opacity="0.1" width="81" height="168" xlink:href="FC9F465C.png"  transform="matrix(1 0 0 1 191.5 1174.5)">
			</image>
			<g>
				<path fill="#F9F9F9" d="M198.192,1181.383v114.242c0,10.398,6.447,25.972,13.801,33.325l7.522,7.523l46.389-87.377
					L198.192,1181.383z"/>
			</g>
		</g>
	</g>
</g>
</svg>
